<?xml version="1.0" encoding="UTF-8"?>
<svg xmlns="http://www.w3.org/2000/svg" xmlns:xlink="http://www.w3.org/1999/xlink" id="Livello_2" data-name="Livello 2" viewBox="0 0 915.14 235.39">
  <defs>
    <style>
      .cls-1 {
        fill: #231f20;
      }

      .cls-2 {
        fill: url(#Sfumatura_senza_nome_29);
      }
    </style>
    <linearGradient id="Sfumatura_senza_nome_29" data-name="Sfumatura senza nome 29" x1="692.79" y1="117.7" x2="915.14" y2="117.7" gradientUnits="userSpaceOnUse">
      <stop offset="0" stop-color="#00ecff"></stop>
      <stop offset="1" stop-color="#3560a3"></stop>
    </linearGradient>
  </defs>
  <g id="Livello_1-2" data-name="Livello 1">
    <g>
      <path class="cls-2" d="M821.87,194.25l5.93,7.91c-50.25,14.2-104.42-8.93-125.71-56.89-38.03-85.68,47.15-171.82,133.61-137.57,72.2,28.6,84.11,125.75,27.1,175.59l-48.86-60.31h48.5c14.52-51.73-30.1-100.84-83.36-87.81-21.48,5.25-40.41,22.61-47.56,43.5-21.18,61.9,42.55,115.42,99.6,84.81l25.37,30.76h-34.64ZM880,203.72h35.14c-.06-1.98-8.68-10.89-9.4-10.89h-35.14l9.4,10.89ZM885.94,210.65h-41.07l7.42,8.91h41.07l-7.42-8.91ZM880.5,225.5l8.41,9.9h25.24l-8.41-9.9h-25.24Z"></path>
      <g>
        <path class="cls-1" d="M99.7,153.59l-5.21-51.32-34.62,55.33-34.48-54.8-4.95,50.79H0L13.77,49.74l46.24,73.24,46.11-73.11,13.9,103.71h-20.31Z"></path>
        <path class="cls-1" d="M130.18,153.46V52.55h60.14v17.11h-41.17v21.79h33.15v17.24h-33.15v27.53h45.31v17.24h-64.29Z"></path>
        <path class="cls-1" d="M222.4,91.84l.27,61.75h-18.98l.27-103.98,74.31,67.23-.13-64.42h18.98l-.27,104.92-74.44-65.49Z"></path>
        <path class="cls-1" d="M332.93,153.59v-83.93h-29.8v-17.11h78.72v17.11h-29.94v83.93h-18.98Z"></path>
        <path class="cls-1" d="M452.82,153.59v-43.04h-45.84v43.04h-18.98V52.41h18.98v40.9h45.84v-40.9h18.98v101.17h-18.98Z"></path>
        <path class="cls-1" d="M536.75,155.86c-30.87,0-55.6-23.92-55.6-52.79s24.73-52.93,55.6-52.93,55.2,22.85,55.2,53.33c0,28.74-25.39,52.39-55.2,52.39ZM536.75,67.25c-19.38,0-35.42,15.5-35.42,35.28s15.64,36.35,34.48,36.35c20.05,0,35.82-15.77,35.82-35.55s-16.04-36.09-34.88-36.09Z"></path>
        <path class="cls-1" d="M660.25,153.59l-37.96-37.69h-2v37.69h-18.98V52.41h20.85c19.51,0,45.58,3.88,45.58,31.14,0,19.11-11.09,27.26-24.32,30.61l43.04,39.43h-26.2ZM626.7,98.66c14.3,0,20.98-4.95,20.98-14.97,0-8.42-6.01-14.03-20.45-14.03h-6.95v29h6.42Z"></path>
      </g>
    </g>
  </g>
</svg>
