<svg width="184" height="32" viewBox="0 0 184 32" fill="none" xmlns="http://www.w3.org/2000/svg">
<g clip-path="url(#clip0_1027_13553)">
<path d="M45.6971 24.7294H49.3089V10.5786H54.0342V7.16461H41.0215V10.5786H45.6971V24.7294Z" fill="white"/>
<path d="M54.04 24.7293H57.4293V18.8167C57.4293 16.7633 58.493 15.5263 60.1011 15.5263C60.67 15.5263 61.1154 15.6253 61.6349 15.7985V12.3597C61.2143 12.236 60.868 12.2113 60.4969 12.2113C59.1115 12.2113 57.8498 13.1266 57.4293 14.3389V12.3597H54.04V24.7293Z" fill="white"/>
<path d="M68.1398 25.0014C69.8469 25.0014 71.1333 24.1355 71.7023 23.3439V24.7293H75.0916V12.3597H71.7023V13.7451C71.1333 12.9535 69.8469 12.0876 68.1398 12.0876C64.8495 12.0876 62.3262 15.0564 62.3262 18.5445C62.3262 22.0327 64.8495 25.0014 68.1398 25.0014ZM68.8573 21.909C66.9771 21.909 65.7401 20.4989 65.7401 18.5445C65.7401 16.5901 66.9771 15.18 68.8573 15.18C70.7375 15.18 71.9744 16.5901 71.9744 18.5445C71.9744 20.4989 70.7375 21.909 68.8573 21.909Z" fill="white"/>
<path d="M83.1613 25.0015C84.8682 25.0015 86.1546 24.1356 86.7237 23.344V24.7293H90.1129V6.17505H86.7237V13.7451C86.1546 12.9535 84.8682 12.0877 83.1613 12.0877C79.871 12.0877 77.3477 15.0564 77.3477 18.5445C77.3477 22.0327 79.871 25.0015 83.1613 25.0015ZM83.8786 21.909C81.9985 21.909 80.7616 20.4989 80.7616 18.5445C80.7616 16.5902 81.9985 15.1801 83.8786 15.1801C85.7588 15.1801 86.9958 16.5902 86.9958 18.5445C86.9958 20.4989 85.7588 21.909 83.8786 21.909Z" fill="white"/>
<path d="M94.8427 10.3312C96.0548 10.3312 97.0197 9.36637 97.0197 8.1789C97.0197 6.99144 96.0548 6.02661 94.8427 6.02661C93.6799 6.02661 92.6904 6.99144 92.6904 8.1789C92.6904 9.36637 93.6799 10.3312 94.8427 10.3312ZM93.1604 24.7293H96.5496V12.3598H93.1604V24.7293Z" fill="white"/>
<path d="M99.5566 24.7293H102.946V18.693C102.946 16.318 104.109 15.18 105.692 15.18C107.102 15.18 107.869 16.2685 107.869 18.0498V24.7293H111.258V17.4807C111.258 14.2646 109.477 12.0876 106.484 12.0876C104.875 12.0876 103.614 12.7804 102.946 13.77V12.3597H99.5566V24.7293Z" fill="white"/>
<path d="M119.883 21.5132C118.176 21.5132 116.741 20.2268 116.741 18.3466C116.741 16.4417 118.176 15.18 119.883 15.18C121.59 15.18 123.025 16.4417 123.025 18.3466C123.025 20.2268 121.59 21.5132 119.883 21.5132ZM119.487 30.1472C123.272 30.1472 126.142 28.2174 126.142 23.7645V12.3597H122.752V13.7451C122.085 12.7804 120.749 12.0876 119.166 12.0876C115.925 12.0876 113.327 14.8584 113.327 18.3466C113.327 21.81 115.925 24.5808 119.166 24.5808C120.749 24.5808 122.085 23.8634 122.752 22.948V23.7892C122.752 25.7683 121.441 27.1784 119.438 27.1784C118.052 27.1784 116.667 26.7083 115.578 25.6446L113.723 28.168C115.133 29.5287 117.335 30.1472 119.487 30.1472Z" fill="white"/>
<path d="M133.308 24.7294H136.499L143.772 7.16461H139.814L134.916 19.361L129.944 7.16461H126.059L133.308 24.7294Z" fill="white"/>
<path d="M146.882 10.3312C148.094 10.3312 149.06 9.36637 149.06 8.1789C149.06 6.99144 148.094 6.02661 146.882 6.02661C145.719 6.02661 144.73 6.99144 144.73 8.1789C144.73 9.36637 145.719 10.3312 146.882 10.3312ZM145.2 24.7293H148.59V12.3598H145.2V24.7293Z" fill="white"/>
<path d="M157.361 25.0014C159.959 25.0014 161.937 23.9129 163.1 22.2307L160.577 20.3505C160.008 21.2164 158.944 21.909 157.385 21.909C155.753 21.909 154.293 20.9937 154.096 19.3362H163.347C163.422 18.8167 163.397 18.4703 163.397 18.1735C163.397 14.1409 160.552 12.0876 157.311 12.0876C153.551 12.0876 150.805 14.8831 150.805 18.5445C150.805 22.4533 153.674 25.0014 157.361 25.0014ZM154.219 17.0354C154.541 15.5263 155.951 14.8831 157.212 14.8831C158.474 14.8831 159.711 15.5511 160.008 17.0354H154.219Z" fill="white"/>
<path d="M176.094 24.7293H179.459L183.541 12.3597H179.905L177.579 20.2762L175.056 12.3597H172.457L169.959 20.2762L167.609 12.3597H163.997L168.104 24.7293H171.469L173.769 17.7034L176.094 24.7293Z" fill="white"/>
<path fill-rule="evenodd" clip-rule="evenodd" d="M13.6705 24.7377H7.16073V13.6711H0V7.16132H13.6705V24.7377ZM23.4351 11.0672C23.4351 13.2243 21.6864 14.9731 19.5293 14.9731C17.3721 14.9731 15.6235 13.2243 15.6235 11.0672C15.6235 8.91002 17.3721 7.16132 19.5293 7.16132C21.6864 7.16132 23.4351 8.91002 23.4351 11.0672ZM19.5293 24.7377L27.0155 7.16132H34.8272L27.341 24.7377H19.5293Z" fill="white"/>
</g>
<defs>
<clipPath id="clip0_1027_13553">
<rect width="183.598" height="31.2895" fill="white"/>
</clipPath>
</defs>
</svg>
